<svg width="16" height="18" viewBox="0 0 16 18" fill="none" xmlns="http://www.w3.org/2000/svg">
<path d="M3.8 4.69231H6.6M3.8 9H12.2M3.8 11.4615H12.2M3.8 13.9231H6.6M2.4 17H13.6C13.9713 17 14.3274 16.8703 14.5899 16.6395C14.8525 16.4087 15 16.0957 15 15.7692V2.23077C15 1.90435 14.8525 1.5913 14.5899 1.36048C14.3274 1.12967 13.9713 1 13.6 1H2.4C2.0287 1 1.6726 1.12967 1.41005 1.36048C1.1475 1.5913 1 1.90435 1 2.23077V15.7692C1 16.0957 1.1475 16.4087 1.41005 16.6395C1.6726 16.8703 2.0287 17 2.4 17Z" stroke="white" stroke-linecap="round" stroke-linejoin="round"/>
<path d="M12.1996 5.00015C12.3929 5.00015 12.5496 4.86239 12.5496 4.69246C12.5496 4.52252 12.3929 4.38477 12.1996 4.38477C12.0063 4.38477 11.8496 4.52252 11.8496 4.69246C11.8496 4.86239 12.0063 5.00015 12.1996 5.00015Z" fill="white" stroke="white" stroke-width="0.5"/>
</svg>
