<svg width="18" height="16" viewBox="0 0 18 16" fill="none" xmlns="http://www.w3.org/2000/svg">
<path d="M16.7213 7.00655H3.913L9.50873 2.12655C9.95593 1.73655 9.95593 1.09655 9.50873 0.706548C9.2945 0.519295 9.00365 0.414062 8.70033 0.414062C8.39702 0.414062 8.10617 0.519295 7.89193 0.706548L0.3354 7.29655C-0.1118 7.68655 -0.1118 8.31655 0.3354 8.70655L7.89193 15.2965C8.33913 15.6866 9.06153 15.6866 9.50873 15.2965C9.95593 14.9065 9.95593 14.2765 9.50873 13.8865L3.913 9.00655H16.7213C17.3519 9.00655 17.8679 8.55655 17.8679 8.00655C17.8679 7.45655 17.3519 7.00655 16.7213 7.00655Z" fill="#828282"/>
</svg>
