<svg width="13" height="21" viewBox="0 0 13 21" fill="none" xmlns="http://www.w3.org/2000/svg">
<path d="M9.64116 20.5844L0.304749 11.2757C0.193931 11.1649 0.11562 11.0449 0.0698153 10.9156C0.0232718 10.7863 0 10.6478 0 10.5C0 10.3522 0.0232718 10.2137 0.0698153 10.0844C0.11562 9.95514 0.193931 9.83509 0.304749 9.72427L9.64116 0.387863C9.89974 0.129287 10.223 0 10.6108 0C10.9987 0 11.3311 0.138522 11.6082 0.415567C11.8852 0.692612 12.0237 1.01583 12.0237 1.38522C12.0237 1.75462 11.8852 2.07784 11.6082 2.35488L3.46306 10.5L11.6082 18.6451C11.8668 18.9037 11.996 19.2221 11.996 19.6004C11.996 19.9794 11.8575 20.3074 11.5805 20.5844C11.3034 20.8615 10.9802 21 10.6108 21C10.2414 21 9.91821 20.8615 9.64116 20.5844Z" fill="#022D4F"/>
</svg>
