<svg width="17" height="17" viewBox="0 0 17 17" fill="none" xmlns="http://www.w3.org/2000/svg">
<path fill-rule="evenodd" clip-rule="evenodd" d="M7.6638 0.00773529C6.04113 0.183249 4.56979 0.766708 3.2881 1.74288C2.85936 2.06942 2.06292 2.86828 1.73736 3.29831C0.863739 4.45232 0.334146 5.68478 0.0787358 7.15824C0.0138302 7.53276 0.00434473 7.70414 0.00434473 8.5023C0.00434473 9.30046 0.0138302 9.47185 0.0787358 9.84637C0.410892 11.7626 1.24243 13.352 2.59503 14.6563C3.84814 15.8646 5.34641 16.6132 7.13637 16.9254C7.50975 16.9905 7.68062 17 8.47637 17C9.27212 17 9.44299 16.9905 9.81637 16.9254C10.7566 16.7614 11.4816 16.5261 12.2866 16.1236C14.4841 15.0247 16.1126 12.9938 16.7185 10.5965C16.8114 10.2291 16.9337 9.50781 16.9337 9.32761C16.9337 9.26008 16.9486 9.19558 16.9668 9.18427C16.9872 9.17162 17 8.89495 17 8.46511C17 8.00787 16.9886 7.7736 16.9668 7.78708C16.9469 7.79942 16.9337 7.75694 16.9337 7.68092C16.9337 7.49636 16.8119 6.77741 16.7182 6.40882C16.4315 5.28052 15.9296 4.24175 15.2154 3.29831C14.8898 2.86828 14.0934 2.06942 13.6646 1.74288C12.5202 0.871197 11.275 0.33175 9.83388 0.08325C9.50554 0.0266306 9.25613 0.0102303 8.60903 0.0027786C8.16212 -0.00237769 7.73677 -0.00014884 7.6638 0.00773529ZM5.17636 4.86503C4.92381 4.99856 4.79496 5.21036 4.79496 5.49203C4.79496 5.59569 4.8184 5.72509 4.84792 5.78444C4.87704 5.84299 5.48514 6.47844 6.19927 7.1966L7.49768 8.5023L6.19724 9.80801C5.31201 10.6968 4.88056 11.1532 4.84587 11.2374C4.74269 11.488 4.79416 11.7928 4.97296 11.9902C5.1496 12.1852 5.53349 12.2585 5.76672 12.1417C5.82509 12.1125 6.45862 11.5026 7.17461 10.7863L8.47637 9.48396L9.77813 10.7863C10.4941 11.5026 11.1276 12.1125 11.186 12.1417C11.4192 12.2585 11.8031 12.1852 11.9798 11.9902C12.1586 11.7928 12.2101 11.488 12.1069 11.2374C12.0722 11.1532 11.6407 10.6968 10.7555 9.80801L9.45506 8.5023L10.7535 7.1966C11.4676 6.47844 12.0757 5.84299 12.1048 5.78444C12.2212 5.55051 12.1481 5.16545 11.9537 4.98828C11.7566 4.80861 11.4082 4.75169 11.186 4.86286C11.1276 4.89207 10.4941 5.50201 9.77813 6.2183L8.47637 7.52065L7.17461 6.2183C6.45862 5.50201 5.82509 4.89207 5.76672 4.86286C5.63017 4.79453 5.30744 4.7957 5.17636 4.86503ZM0 8.5023C0 8.89568 0.00477589 9.05662 0.0106462 8.85992C0.0165166 8.66321 0.0165166 8.34136 0.0106462 8.14469C0.00477589 7.94802 0 8.10893 0 8.5023Z" fill="#FF001F"/>
</svg>
