<svg width="18" height="18" viewBox="0 0 18 18" fill="none" xmlns="http://www.w3.org/2000/svg">
<path d="M4.55585 1C3.4004 1.1032 2.62242 1.3352 2.04115 1.8608C1 2.8024 1 4.3184 1 7.3512V10.5672C1 13.5992 1 15.116 2.04115 16.0584C3.08229 17.0008 4.75876 17 8.11081 17H9.88918C13.2412 17 14.9177 17 15.9589 16.0584C16.9043 15.2024 16.992 13.8848 17 11.3816" stroke="white" stroke-linecap="round" stroke-linejoin="round"/>
<path d="M7.75625 4.9974L8.60099 7.7974C9.07263 8.6854 9.66471 8.9174 11.1361 8.9974C12.3059 8.9702 12.9847 8.839 13.5642 8.3606C13.9592 8.0342 14.1377 7.5422 14.2245 7.0526L14.5142 5.3974M16.6265 3.7974V7.7974M6.13498 3.3438C7.47158 2.2902 8.66247 1.7246 11.1327 1.1022C11.4114 1.03231 11.7045 1.03369 11.9825 1.1062C14.1689 1.6774 15.3497 2.1846 16.9313 3.3126C16.9987 3.3606 17.0189 3.4502 16.9718 3.5166C16.4555 4.2382 15.3025 4.823 12.4743 5.8646C11.8853 6.0799 11.2324 6.07647 10.6459 5.855C7.63413 4.719 6.24952 4.111 6.08108 3.4798C6.07561 3.45461 6.07777 3.42846 6.08731 3.40439C6.09685 3.38031 6.11338 3.35931 6.13498 3.3438Z" stroke="white" stroke-width="1.5" stroke-linecap="round" stroke-linejoin="round"/>
</svg>
