<svg width="54" height="51" viewBox="0 0 54 51" fill="none" xmlns="http://www.w3.org/2000/svg">
<path fill-rule="evenodd" clip-rule="evenodd" d="M6.9287 17.9226C4.96967 19.9155 5.44568 23.2263 7.88681 24.5865L25.0353 34.142C26.3245 34.8603 27.8946 34.8552 29.1791 34.1287L45.7706 24.7436C48.1644 23.3895 48.6511 20.1478 46.7605 18.1505L43.1354 14.3208H46.5545C50.4501 14.3208 53.6082 17.4788 53.6082 21.3745V43.9463C53.6082 47.842 50.4501 51 46.5545 51H7.05371C3.15805 51 0 47.842 0 43.9463V21.3745C0 17.4788 3.15805 14.3208 7.05371 14.3208H10.4694L6.9287 17.9226Z" fill="#3498DB"/>
<path fill-rule="evenodd" clip-rule="evenodd" d="M14.9647 1.9433C10.9518 1.9433 7.69873 5.19639 7.69873 9.2093V24.4497C7.84806 24.56 8.00678 24.6622 8.17474 24.7551L10.9448 26.2878V9.2093C10.9448 6.98915 12.7446 5.18937 14.9647 5.18937H38.9473C41.1675 5.18937 42.9673 6.98916 42.9673 9.2093V26.397L45.8901 24.7437C46.002 24.6804 46.1098 24.6129 46.2133 24.5417V9.2093C46.2133 5.1964 42.9602 1.9433 38.9473 1.9433H14.9647Z" fill="#3498DB"/>
<line x1="16.001" y1="11.0166" x2="24.9106" y2="11.0166" stroke="#3498DB" stroke-width="3.78709" stroke-linecap="round"/>
<line x1="15.5488" y1="19.5494" x2="31.2382" y2="19.5494" stroke="#3498DB" stroke-width="3.78709" stroke-linecap="round"/>
</svg>