<svg width="67" height="55" viewBox="0 0 67 55" fill="none" xmlns="http://www.w3.org/2000/svg">
<g clip-path="url(#clip0_1287_526)">
<path d="M52.8529 28.1514C51.6783 28.1514 50.7231 29.1094 50.7231 30.2883V32.3695H54.9869V30.2883C54.9869 29.1094 54.0275 28.1514 52.8529 28.1514Z" fill="#3498DB"/>
<path d="M58.7704 18.0116H8.2296C3.70638 18.0116 0 21.7209 0 26.2441V40.756C0 45.2863 3.70638 48.9884 8.2296 48.9884H58.7704C63.2936 48.9884 67 45.2863 67 40.756V26.2441C67 21.7209 63.2936 18.0116 58.7704 18.0116ZM17.9047 35.7481L19.879 37.8978L16.4592 40.4638L15.0565 37.8978C14.8498 37.5314 14.5262 36.813 14.0714 35.7481C13.5739 36.9185 13.2432 37.6312 13.0793 37.8978L11.6566 40.4638L8.14121 37.8978L10.2667 35.7481C10.8654 35.1565 11.4456 34.649 12.0187 34.2328C11.4342 34.18 10.6658 34.0717 9.71785 33.8935L6.77413 33.4145L8.13979 29.4059L10.7799 30.6062C11.0579 30.7316 11.7492 31.1265 12.8497 31.7808C12.6145 30.716 12.4634 29.9248 12.395 29.4059L12.0201 26.5363H16.2126L15.8733 29.4059C15.7992 30.1044 15.6367 30.8956 15.3957 31.7808C15.879 31.5385 16.1983 31.3774 16.3494 31.289C16.8797 30.9939 17.2889 30.7901 17.564 30.6589L20.2055 29.4059L21.5141 33.4145L18.5932 34.0246C18.0586 34.1273 17.266 34.1943 16.2126 34.2328C16.9268 34.7916 17.4856 35.2934 17.9047 35.7481ZM37.2591 35.7481L39.2363 37.8978L35.8165 40.4623L34.4152 37.8978C34.2085 37.5314 33.8849 36.813 33.4316 35.7481C32.9326 36.9185 32.6048 37.6312 32.4408 37.8978L31.0153 40.4623L27.5014 37.8978L29.6268 35.7481C30.2256 35.1565 30.8043 34.649 31.3788 34.2328C30.7972 34.18 30.026 34.0717 29.078 33.8935L26.1329 33.4145L27.4999 29.4059L30.1414 30.6062C30.4166 30.7316 31.1108 31.1265 32.2099 31.7808C31.969 30.716 31.8179 29.9248 31.7537 29.4059L31.3774 26.5392H35.5713L35.2306 29.4059C35.1536 30.1044 34.994 30.8956 34.7559 31.7808C35.2363 31.5385 35.5556 31.3774 35.7081 31.289C36.2356 30.9939 36.6461 30.7901 36.9227 30.6589L39.5656 29.4059L40.8757 33.4145L37.9519 34.0246C37.4174 34.1273 36.6276 34.1943 35.5727 34.2328C36.2812 34.7916 36.8414 35.2934 37.2591 35.7481ZM58.9457 39.3804C58.9457 40.2628 58.223 40.9841 57.342 40.9841H48.3683C47.4859 40.9841 46.7646 40.2628 46.7646 39.3804V33.9719C46.7646 33.0895 47.4859 32.3682 48.3683 32.3682H48.585V30.2869C48.585 27.9305 50.4995 26.0131 52.853 26.0131C55.208 26.0131 57.1239 27.9291 57.1239 30.2869V32.3682H57.3406C58.2201 32.3682 58.9443 33.0895 58.9443 33.9719L58.9457 39.3804Z" fill="#3498DB"/>
</g>
<defs>
<clipPath id="clip0_1287_526">
<rect width="67" height="55" fill="white"/>
</clipPath>
</defs>
</svg>