<svg width="48" height="48" viewBox="0 0 48 48" fill="none" xmlns="http://www.w3.org/2000/svg">
<path d="M0 13.3954C0 5.9973 5.9973 0 13.3954 0H34.6047C42.0027 0 48 5.9973 48 13.3954V34.6047C48 42.0027 42.0027 48 34.6047 48H13.3954C5.9973 48 0 42.0027 0 34.6047V13.3954Z" fill="#3498DB"/>
<path fill-rule="evenodd" clip-rule="evenodd" d="M20.6511 34.0465C20.6511 32.1971 22.1505 30.6977 24 30.6977H24.0167C25.8662 30.6977 27.3655 32.1971 27.3655 34.0465C27.3655 35.896 25.8662 37.3954 24.0167 37.3954H24C22.1505 37.3954 20.6511 35.896 20.6511 34.0465Z" fill="white"/>
<path fill-rule="evenodd" clip-rule="evenodd" d="M38.6046 21.8804C29.7369 15.0321 18.2631 15.0321 9.39544 21.8804C8.66354 22.4457 7.61201 22.3106 7.04677 21.5786C6.48155 20.8467 6.61666 19.7952 7.34856 19.2299C17.422 11.4505 30.5781 11.4505 40.6514 19.2299C41.3834 19.7952 41.5185 20.8467 40.9532 21.5786C40.388 22.3106 39.3364 22.4457 38.6046 21.8804Z" fill="white"/>
<path fill-rule="evenodd" clip-rule="evenodd" d="M31.1014 28.5566C26.7823 25.2111 21.2027 25.2111 16.8835 28.5566C16.1524 29.123 15.1006 28.9895 14.5344 28.2584C13.968 27.5272 14.1016 26.4754 14.8327 25.9093C20.3592 21.6286 27.6258 21.6286 33.1523 25.9093C33.8832 26.4754 34.0169 27.5272 33.4505 28.2584C32.8843 28.9895 31.8326 29.123 31.1014 28.5566Z" fill="white"/>
</svg>