<svg width="13" height="17" viewBox="0 0 13 17" fill="none" xmlns="http://www.w3.org/2000/svg">
<path d="M6.5 8.5H11.5M11.5 8.5L9.35714 10.8333M11.5 8.5L9.35714 6.16667M11.5 3.83333V3.05556C11.5 2.643 11.3495 2.24733 11.0816 1.95561C10.8137 1.66389 10.4503 1.5 10.0714 1.5H2.92857C2.54969 1.5 2.18633 1.66389 1.91842 1.95561C1.65051 2.24733 1.5 2.643 1.5 3.05556V13.9444C1.5 14.357 1.65051 14.7527 1.91842 15.0444C2.18633 15.3361 2.54969 15.5 2.92857 15.5H10.0714C10.4503 15.5 10.8137 15.3361 11.0816 15.0444C11.3495 14.7527 11.5 14.357 11.5 13.9444V13.1667" stroke="black" stroke-width="1.5" stroke-linecap="round" stroke-linejoin="round"/>
</svg>
