<svg width="17" height="17" viewBox="0 0 17 17" fill="none" xmlns="http://www.w3.org/2000/svg">
<g clip-path="url(#clip0_762_13319)">
<path fill-rule="evenodd" clip-rule="evenodd" d="M11.9511 5.57462C11.8699 5.62745 10.7802 6.69563 9.52945 7.94835L7.25543 10.226L6.17593 9.14877C5.09023 8.06526 4.97398 7.9688 4.75411 7.9688C4.60729 7.9688 4.38117 8.10464 4.31138 8.23473C4.23691 8.37361 4.23173 8.60139 4.29983 8.74486C4.37692 8.90732 6.89707 11.4083 7.04609 11.4702C7.20188 11.535 7.30723 11.535 7.46325 11.4704C7.61227 11.4087 12.622 6.41858 12.7 6.25409C12.8189 6.00351 12.7306 5.69452 12.5018 5.56045C12.3102 5.44812 12.1387 5.45254 11.9511 5.57462Z" fill="#F9FAF9"/>
<path fill-rule="evenodd" clip-rule="evenodd" d="M7.42297 0.0538612C6.28241 0.199922 5.01704 0.647367 4.05072 1.24632C2.93898 1.93542 1.93545 2.93895 1.24636 4.05069C0.790876 4.78557 0.375803 5.81238 0.186047 6.67373C-0.0643374 7.81024 -0.0646363 9.19349 0.18525 10.3239C0.377663 11.1942 0.814582 12.2646 1.27717 12.9989C1.75267 13.7537 2.50286 14.6016 3.15424 15.1206C4.2778 16.0158 5.62608 16.6315 7.0058 16.8795C8.03102 17.0638 9.30977 17.0388 10.3239 16.8146C11.5613 16.5411 12.8331 15.9291 13.8456 15.1199C14.2076 14.8307 14.8308 14.2076 15.12 13.8456C16.0976 12.6221 16.7872 11.0075 16.9361 9.59305C16.9561 9.40273 16.9862 9.22104 17.0029 9.18934C17.0195 9.15763 17.032 8.81397 17.0305 8.42566C17.0291 8.03735 17.0187 7.74204 17.0075 7.76944C16.9963 7.79683 16.9681 7.65127 16.9448 7.44597C16.7766 5.96478 16.089 4.35147 15.1073 3.13411C14.5891 2.4915 13.7403 1.744 12.999 1.27726C12.0044 0.651119 10.7216 0.197597 9.53024 0.0509061C9.01662 -0.0123459 7.92799 -0.0108185 7.42297 0.0538612ZM11.9513 5.57448C11.8701 5.62731 10.7803 6.69548 9.52961 7.9482L7.25559 10.2259L6.17609 9.14863C5.09038 8.06511 4.97414 7.96866 4.75427 7.96866C4.60744 7.96866 4.38133 8.10449 4.31154 8.23458C4.23706 8.37347 4.23188 8.60124 4.29998 8.74471C4.37708 8.90718 6.89723 11.4082 7.04624 11.4701C7.20203 11.5348 7.30739 11.5349 7.46341 11.4703C7.61242 11.4086 12.6221 6.41844 12.7002 6.25395C12.8191 6.00336 12.7308 5.69438 12.502 5.5603C12.3103 5.44797 12.1389 5.45239 11.9513 5.57448ZM0.0140884 8.4833C0.0141216 8.88506 0.0189028 9.04487 0.0247466 8.83841C0.0305903 8.63196 0.0305571 8.30324 0.0247134 8.10794C0.0188364 7.91264 0.0140552 8.08155 0.0140884 8.4833Z" fill="#3DB182"/>
</g>
<defs>
<clipPath id="clip0_762_13319">
<rect width="17" height="17" fill="white"/>
</clipPath>
</defs>
</svg>