<svg width="16" height="17" viewBox="0 0 16 17" fill="none" xmlns="http://www.w3.org/2000/svg">
<path d="M1 2.1V14.9C1 15.3243 1.18437 15.7313 1.51256 16.0314C1.84075 16.3314 2.28587 16.5 2.75 16.5H13.25C13.7141 16.5 14.1592 16.3314 14.4874 16.0314C14.8156 15.7313 15 15.3243 15 14.9V5.5736C15 5.36045 14.9534 5.14945 14.8629 4.953C14.7724 4.75654 14.64 4.57859 14.4733 4.4296L10.5883 0.956C10.2613 0.663726 9.82225 0.500052 9.365 0.5H2.75C2.28587 0.5 1.84075 0.668571 1.51256 0.968629C1.18437 1.26869 1 1.67565 1 2.1Z" stroke="#828282" stroke-linecap="round" stroke-linejoin="round"/>
<path d="M9.75 0.5V3.7C9.75 4.12435 9.93437 4.53131 10.2626 4.83137C10.5908 5.13143 11.0359 5.3 11.5 5.3H15" stroke="#828282" stroke-linejoin="round"/>
</svg>
