<svg width="15" height="15" viewBox="0 0 15 15" fill="none" xmlns="http://www.w3.org/2000/svg">
<path d="M7.49805 0.450195C8.4719 0.450244 9.38828 0.635529 10.2471 1.00586L10.5635 1.15039C11.2895 1.5026 11.9306 1.95595 12.4863 2.51074L12.7188 2.75391C13.2455 3.33325 13.6704 3.99872 13.9941 4.74902L14.125 5.07324C14.4086 5.83706 14.5498 6.64576 14.5498 7.49805C14.5498 8.35032 14.4082 9.15865 14.125 9.92285L13.9951 10.2471C13.6718 10.9979 13.2465 11.6633 12.7197 12.2432L12.4883 12.4863C11.8531 13.121 11.1069 13.6236 10.251 13.9941C9.50119 14.3187 8.70593 14.5009 7.86523 14.541L7.50195 14.5498C6.64968 14.5498 5.84135 14.4082 5.07715 14.125L4.75293 13.9951C4.00259 13.6713 3.33699 13.2461 2.75684 12.7197L2.51367 12.4883C1.95789 11.933 1.50317 11.2926 1.15039 10.5674L1.00586 10.251C0.635469 9.39361 0.450195 8.47697 0.450195 7.50195C0.450243 6.52708 0.635524 5.61069 1.00586 4.75293L1.15039 4.43652C1.50253 3.71057 1.95547 3.06942 2.50977 2.51367L2.75293 2.28125C3.33194 1.75446 3.99728 1.32964 4.74805 1.00586L5.07227 0.875C5.83657 0.591339 6.64563 0.450195 7.49805 0.450195ZM7.5 1.32812C5.88364 1.32812 4.50066 1.8531 3.34863 2.9043L3.12109 3.12109C1.92511 4.31708 1.32812 5.77594 1.32812 7.5C1.32813 9.22406 1.92511 10.6829 3.12109 11.8789L3.34863 12.0957C4.50066 13.1469 5.88364 13.6719 7.5 13.6719C9.22406 13.6719 10.6829 13.0749 11.8789 11.8789L12.0957 11.6514C13.1469 10.4993 13.6719 9.11636 13.6719 7.5C13.6719 5.88364 13.1469 4.50066 12.0957 3.34863L11.8789 3.12109C10.6829 1.92511 9.22406 1.32812 7.5 1.32812ZM4.33105 5.71289L4.85742 6.17969L4.88574 6.2041L4.87012 6.23828C4.80129 6.38396 4.74439 6.53583 4.7002 6.69434L4.66016 6.85449C4.6122 7.07136 4.58789 7.28827 4.58789 7.50488C4.58792 7.86459 4.65968 8.2253 4.80371 8.58691C4.94732 8.94745 5.16162 9.26956 5.44629 9.55371L5.55371 9.6543C5.81464 9.88068 6.14653 10.0572 6.55078 10.1826L6.72754 10.2324C7.11358 10.3329 7.54352 10.3829 8.01758 10.3887L7.03027 9.40234L6.99512 9.36621L7.03027 9.33105L7.51855 8.84375L7.55371 8.80859L7.58887 8.84375L9.46191 10.7119L9.49707 10.7471L9.46191 10.7822L7.58984 12.6504L7.55469 12.6865L7.51953 12.6504L7.03027 12.1631L6.99512 12.1279L7.03027 12.0928L7.94043 11.1816C7.45061 11.1701 6.97065 11.1042 6.50098 10.9805L6.28418 10.9189C5.70648 10.7443 5.23775 10.4755 4.87988 10.1123C4.56884 9.79664 4.32372 9.44456 4.14551 9.05566L4.07324 8.88672C3.8916 8.43105 3.80078 7.96865 3.80078 7.5L3.80762 7.26953C3.82142 7.04016 3.85672 6.81332 3.91309 6.58984L3.97656 6.36816C4.04744 6.1484 4.1397 5.93391 4.25391 5.72559L4.28418 5.6709L4.33105 5.71289ZM7.49609 2.34961L7.98438 2.83691L8.01953 2.87207L7.98438 2.90723L7.07324 3.82227C7.63565 3.8328 8.18768 3.9184 8.72949 4.08008L8.94238 4.14941C9.42551 4.32132 9.8222 4.56527 10.1309 4.88281L10.2627 5.01855C10.5586 5.34149 10.786 5.70564 10.9443 6.10938L11.0078 6.28125C11.1461 6.68479 11.2148 7.09123 11.2148 7.5L11.208 7.73047C11.1937 7.95983 11.1585 8.18669 11.1025 8.41016C11.0278 8.70831 10.914 8.9966 10.7617 9.27441L10.7314 9.3291L10.6846 9.28711L10.1582 8.82031L10.1299 8.7959L10.1455 8.76172C10.2377 8.56771 10.308 8.36228 10.3555 8.14551C10.4029 7.92865 10.4268 7.71172 10.4268 7.49512L10.4131 7.22461C10.395 7.04397 10.3585 6.86335 10.3037 6.68262L10.208 6.41113C10.0982 6.14035 9.95182 5.89259 9.76855 5.66797L9.57324 5.45117C9.2987 5.17465 8.92874 4.96415 8.46191 4.82031C8.02742 4.68646 7.53802 4.61586 6.99316 4.60645L7.98438 5.59766L8.01953 5.63379L7.98438 5.66895L7.49609 6.15625L7.46094 6.19141L7.42578 6.15625L5.55273 4.28809L5.51758 4.25293L5.55273 4.21777L7.42578 2.34961L7.46094 2.31348L7.49609 2.34961Z" fill="black" stroke="black" stroke-width="0.1"/>
</svg>
