<svg width="29" height="29" viewBox="0 0 29 29" fill="none" xmlns="http://www.w3.org/2000/svg">
<circle cx="14.5" cy="14.5" r="12.65" fill="#F3F0FB" stroke="white" stroke-width="2.3"/>
<path fill-rule="evenodd" clip-rule="evenodd" d="M17.6119 11.096L18.3954 10.299C19.0394 9.64384 19.0394 8.59338 18.3954 7.93823C17.7356 7.26701 16.6537 7.26701 15.9939 7.93823L15.2401 8.70499C15.7909 9.70355 16.6114 10.5338 17.6119 11.096ZM13.7927 10.1775L10.3619 13.6675L10.3619 13.6675L10.3619 13.6675C9.94449 14.0921 9.73577 14.3044 9.59885 14.564C9.46192 14.8235 9.40449 15.1156 9.28961 15.6999L9.07543 16.7893C9.00999 17.1222 8.97727 17.2886 9.0722 17.3829C9.16712 17.4772 9.33331 17.4434 9.66571 17.3758L9.66572 17.3758L9.66573 17.3758L10.6841 17.1686L10.6841 17.1686C11.2787 17.0476 11.5759 16.9871 11.8386 16.8445C12.1012 16.702 12.3138 16.4856 12.7392 16.053L16.1721 12.5607C15.2196 11.9393 14.4096 11.1262 13.7927 10.1775Z" fill="#4B26CE"/>
<line x1="9" y1="19.6848" x2="19" y2="19.6848" stroke="#4B26CE"/>
</svg>