<svg width="16" height="16" viewBox="0 0 16 16" fill="none" xmlns="http://www.w3.org/2000/svg">
<path fill-rule="evenodd" clip-rule="evenodd" d="M6.11274 0.468243C6.7026 0.159936 7.34722 0 8 0C8.65278 0 9.2974 0.159936 9.88726 0.468243L14.8659 3.04292C15.6502 3.4466 16 4.32616 16 5.12859C16 5.93102 15.6502 6.81058 14.8666 7.21508L13.7674 7.78286V11.795C13.7674 12.8231 13.3001 13.8159 12.4487 14.3361C11.8891 14.6774 11.1539 15.0884 10.3799 15.4158C9.61563 15.7391 8.76949 16 8 16C7.23051 16 6.38437 15.7391 5.61935 15.4158C4.8454 15.0884 4.11088 14.6774 3.55126 14.3361C2.69991 13.8159 2.23256 12.8231 2.23256 11.795V7.78286L1.1334 7.21426L1.11628 7.20606V9.64125C1.11628 9.80446 1.05748 9.96098 0.952804 10.0764C0.848132 10.1918 0.706167 10.2566 0.55814 10.2566C0.410112 10.2566 0.268147 10.1918 0.163475 10.0764C0.0588038 9.96098 0 9.80446 0 9.64125V5.12859C0 4.32616 0.350512 3.4466 1.1334 3.04292L6.11274 0.468243ZM3.34884 8.36048V11.7958C3.34884 12.4219 3.63088 12.9782 4.09228 13.2604C4.71322 13.644 5.3572 13.9803 6.01972 14.2671C6.73637 14.5707 7.43293 14.7701 8 14.7701C8.56707 14.7701 9.26363 14.5707 9.98102 14.2671C10.6435 13.9803 11.2875 13.644 11.9085 13.2604C12.3699 12.9782 12.6512 12.4219 12.6512 11.7958V8.36048L9.88726 9.78894C9.2974 10.0972 8.65278 10.2572 8 10.2572C7.34722 10.2572 6.7026 10.0972 6.11274 9.78894L3.34884 8.36048ZM1.60744 6.10004C1.30753 5.94497 1.11628 5.57493 1.11628 5.12859C1.11628 4.68225 1.30753 4.31221 1.60744 4.15714L6.58679 1.58328C7.02829 1.35168 7.51107 1.23151 8 1.23151C8.48893 1.23151 8.97171 1.35168 9.41321 1.58328L14.3926 4.15714C14.6925 4.31221 14.8837 4.68225 14.8837 5.12859C14.8837 5.57493 14.6925 5.94497 14.3926 6.10004L9.41321 8.6739C8.97171 8.9055 8.48893 9.02567 8 9.02567C7.51107 9.02567 7.02829 8.9055 6.58679 8.6739L1.60744 6.10004Z" fill="white"/>
</svg>
