<svg width="16" height="18" viewBox="0 0 16 18" fill="none" xmlns="http://www.w3.org/2000/svg">
<path d="M14.9998 3.4L7.99994 1L1.00006 3.4L4.5 4.6V6.2M14.9998 3.4L11.4999 4.6V6.2M14.9998 3.4V6.6M4.5 6.2C4.5 6.2 5.66698 5.8 7.99994 5.8C10.3329 5.8 11.4999 6.2 11.4999 6.2M4.5 6.2V7C4.5 7.3677 4.59053 7.7318 4.76642 8.07151C4.94231 8.41123 5.20011 8.71989 5.52511 8.9799C5.85011 9.2399 6.23594 9.44615 6.66057 9.58686C7.08521 9.72758 7.54032 9.8 7.99994 9.8C8.45956 9.8 8.91468 9.72758 9.33931 9.58686C9.76394 9.44615 10.1498 9.2399 10.4748 8.9799C10.7998 8.71989 11.0576 8.41123 11.2335 8.07151C11.4094 7.7318 11.4999 7.3677 11.4999 7V6.2M3.78301 12.7624C2.68303 13.3104 -0.202919 14.428 1.55405 15.8272C2.41304 16.512 3.37002 17 4.571 17H11.4289C12.6309 17 13.5868 16.5112 14.4458 15.8272C16.2028 14.428 13.3179 13.3104 12.2169 12.7632C10.951 12.1339 9.49032 11.8004 7.99994 11.8004C6.50957 11.8004 5.0489 12.1339 3.78301 12.7632" stroke="white" stroke-linecap="round" stroke-linejoin="round"/>
</svg>
